<svg xmlns="http://www.w3.org/2000/svg" xml:space="preserve" id="Layer_1" x="0" y="0" viewBox="0 0 826.52 254.82"><style>.st3{fill:#6421f5}</style><path d="M278.05 148.92q-8.64 0-13.53-4.86t-4.89-14.04v-23.7h7.8v23.4q0 6.48 2.79 9.42t7.89 2.94 7.86-2.94 2.76-9.42v-23.4h7.68v23.7q0 9.18-4.89 14.04t-13.47 4.86M307.29 148.32l18.9-42h7.68l18.96 42h-8.16l-16.26-37.86h3.12l-16.2 37.86zm8.7-9.72 2.1-6.12h22.68l2.1 6.12zM368.37 148.32v-42h17.28q5.58 0 9.57 1.8t6.15 5.16 2.16 7.98-2.16 7.95-6.15 5.1-9.57 1.77h-12.96l3.48-3.54v15.78zm7.8-14.94-3.48-3.72h12.6q5.16 0 7.77-2.22t2.61-6.18q0-4.02-2.61-6.18t-7.77-2.16h-12.6l3.48-3.84zm19.68 14.94-10.62-15.24h8.34l10.68 15.24zM422.43 148.32v-42h18.36q6.84 0 12 2.64t8.04 7.32c2.88 4.68 2.88 6.8 2.88 11.04q0 6.3-2.88 11.01t-8.04 7.35-12 2.64zm7.8-6.6h10.2q4.74 0 8.19-1.8t5.34-5.04c1.89-3.24 1.89-4.68 1.89-7.56q0-4.38-1.89-7.59t-5.34-5.01-8.19-1.8h-10.2zM487.59 141.78h23.7v6.54h-31.5v-42h30.66v6.54h-22.86zm-.6-18h20.88v6.42h-20.88zM528.19 148.32v-42h18.36q6.84 0 12 2.64t8.04 7.32c2.88 4.68 2.88 6.8 2.88 11.04q0 6.3-2.88 11.01t-8.04 7.35-12 2.64zm7.8-6.6h10.2q4.74 0 8.19-1.8t5.34-5.04c1.89-3.24 1.89-4.68 1.89-7.56q0-4.38-1.89-7.59t-5.34-5.01-8.19-1.8h-10.2zM589.15 148.32v-42h18.12q7.02 0 10.89 2.82t3.87 7.98q0 3.42-1.59 5.76t-4.32 3.54-5.97 1.2l1.02-1.44q4.02 0 6.93 1.23t4.53 3.66c1.62 2.43 1.62 3.63 1.62 6.03q0 5.34-3.93 8.28t-11.85 2.94zm4.44-3.66h14.82q5.52 0 8.46-1.89t2.94-6.03q0-4.08-2.94-5.97t-8.46-1.89h-15.3v-3.66h13.86q5.04 0 7.83-1.92t2.79-5.7q0-3.84-2.79-5.73t-7.83-1.89h-13.38zM662.95 148.68q-4.74 0-8.79-1.59t-7.02-4.5-4.62-6.78-1.65-8.49 1.65-8.49 4.62-6.78 6.99-4.5 8.82-1.59q4.74 0 8.76 1.59t6.99 4.47 4.62 6.78 1.65 8.52-1.65 8.52-4.62 6.78-6.99 4.47-8.76 1.59m0-3.96q3.78 0 6.99-1.29t5.58-3.66 3.69-5.52 1.32-6.93-1.32-6.93-3.69-5.52-5.58-3.66-6.99-1.29-7.02 1.29-5.61 3.66a17.4 17.4 0 0 0-3.72 5.52q-1.35 3.15-1.35 6.93 0 3.72 1.35 6.9t3.72 5.55 5.61 3.66 7.02 1.29M697.81 148.32l17.22-23.28v3.42l-16.2-22.14h5.1l13.62 18.48-1.98.06 13.62-18.54h4.8l-16.02 21.84v-3.12l17.16 23.28h-5.16l-14.52-19.74h1.86l-14.4 19.74zM223.64 132.22h12.52v7.67c-.85.49-1.72.9-2.61 1.2q-2.91.99-6.03.99-3.36 0-6.12-1.08t-4.8-3.09a14 14 0 0 1-3.15-4.71q-1.11-2.7-1.11-5.88 0-3.24 1.11-5.94t3.15-4.68 4.86-3.06 6.12-1.08q3.42 0 6.27 1.17c.56.23 1.11.51 1.65.82l2.38-6.6c-.34-.16-.67-.34-1.02-.48q-4.29-1.74-9.63-1.74-4.92 0-9.06 1.59t-7.23 4.5a20.1 20.1 0 0 0-4.77 6.87q-1.68 3.96-1.68 8.64t1.68 8.64 4.74 6.87 7.17 4.5 9.03 1.59q4.44 0 8.79-1.35t7.65-3.99v-18.74h-19.9v7.37zM178.91 127.32c.67-1.11 1.3-2.25 1.82-3.47 1.45-3.41 2.17-7.14 2.17-11.17s-.72-7.76-2.17-11.17-3.49-6.37-6.13-8.88q-3.96-3.765-9.27-5.82c-3.54-1.37-7.43-2.06-11.67-2.06-3.83 0-7.61.58-11.36 1.75a31 31 0 0 0-5.12 2.09 33 33 0 0 0-5.12-2.09c-3.75-1.16-7.54-1.75-11.36-1.75-4.24 0-8.13.69-11.67 2.06q-5.31 2.055-9.27 5.82c-2.64 2.51-4.68 5.47-6.13 8.88s-2.17 7.14-2.17 11.17.72 7.76 2.17 11.17c.52 1.22 1.14 2.37 1.82 3.47-.67 1.11-1.3 2.25-1.82 3.47-1.45 3.41-2.17 7.14-2.17 11.17s.72 7.76 2.17 11.17 3.49 6.37 6.13 8.88q3.96 3.765 9.27 5.82c3.54 1.37 7.43 2.06 11.67 2.06 3.83 0 7.61-.58 11.36-1.75a31 31 0 0 0 5.12-2.09c1.6.82 3.31 1.52 5.12 2.09 3.75 1.16 7.54 1.75 11.36 1.75 4.24 0 8.13-.69 11.67-2.06q5.31-2.055 9.27-5.82c2.64-2.51 4.68-5.47 6.13-8.88s2.17-7.14 2.17-11.17-.72-7.76-2.17-11.17c-.52-1.22-1.15-2.36-1.82-3.47m-7.61 22.25c-.96 2.33-2.31 4.36-4.07 6.09s-3.83 3.06-6.2 3.99c-2.38.93-5.02 1.4-7.91 1.4-2.69 0-5.29-.43-7.8-1.28-1.15-.39-2.27-.92-3.37-1.56v-9.91h16.18v-9.54h-41.9v9.54h16.18v9.91c-1.1.64-2.22 1.17-3.37 1.56-2.51.85-5.11 1.28-7.8 1.28-2.9 0-5.53-.47-7.91-1.4s-4.45-2.26-6.2-3.99a17.95 17.95 0 0 1-4.07-6.09c-.96-2.33-1.44-4.86-1.44-7.6 0-2.47.4-4.74 1.14-6.85.1-.28.18-.56.29-.83.96-2.33 2.31-4.34 4.07-6.05.33-.32.69-.62 1.05-.91-.36-.3-.71-.59-1.05-.91a17.6 17.6 0 0 1-4.07-6.05c-.11-.27-.19-.55-.29-.83-.75-2.1-1.14-4.38-1.14-6.85 0-2.74.48-5.27 1.44-7.6s2.31-4.36 4.07-6.09 3.83-3.06 6.2-4c2.38-.93 5.02-1.4 7.91-1.4 2.69 0 5.29.43 7.8 1.28 1.15.39 2.27.92 3.37 1.56v9.91h-16.18v9.54h41.9v-9.54h-16.18v-9.91c1.1-.64 2.22-1.17 3.37-1.56 2.51-.85 5.11-1.28 7.8-1.28 2.9 0 5.53.47 7.91 1.4s4.45 2.26 6.2 4c1.76 1.73 3.12 3.76 4.07 6.09.96 2.33 1.44 4.86 1.44 7.6 0 2.47-.4 4.74-1.14 6.85-.1.28-.18.56-.29.83-.96 2.33-2.31 4.34-4.07 6.05-.33.32-.69.62-1.05.91.36.3.71.59 1.05.91 1.76 1.71 3.12 3.72 4.07 6.05.11.27.19.55.29.83.75 2.1 1.14 4.38 1.14 6.85 0 2.74-.48 5.27-1.44 7.6" class="st3"/></svg>